<svg xmlns="http://www.w3.org/2000/svg" width="17.082" height="13" viewBox="0 0 17.082 13">
  <g id="envelope_4_" data-name="envelope (4)" transform="translate(0 -57.75)">
    <g id="Grupo_277" data-name="Grupo 277" transform="translate(0 57.75)">
      <path id="Caminho_525" data-name="Caminho 525" d="M15,57.75H2.089A2.091,2.091,0,0,0,0,59.839v8.822A2.091,2.091,0,0,0,2.089,70.75h12.9a2.091,2.091,0,0,0,2.089-2.089V59.842A2.088,2.088,0,0,0,15,57.75Zm1.135,10.911A1.136,1.136,0,0,1,15,69.8H2.089A1.136,1.136,0,0,1,.954,68.661V59.842a1.136,1.136,0,0,1,1.135-1.135h12.9a1.136,1.136,0,0,1,1.135,1.135v8.819Z" transform="translate(0 -57.75)" fill="#993f98"/>
      <path id="Caminho_526" data-name="Caminho 526" d="M64.555,113.485l4.178-3.747a.478.478,0,1,0-.64-.71L62.332,114.2l-1.124-1s-.007-.007-.007-.011a.707.707,0,0,0-.078-.067l-4.574-4.093a.478.478,0,1,0-.636.714l4.227,3.778-4.21,3.941a.479.479,0,0,0-.021.675.488.488,0,0,0,.35.152.478.478,0,0,0,.325-.127l4.273-4,1.159,1.036a.476.476,0,0,0,.636,0l1.191-1.067,4.249,4.036a.478.478,0,0,0,.675-.018.479.479,0,0,0-.018-.675Z" transform="translate(-53.782 -107.094)" fill="#993f98"/>
    </g>
  </g>
</svg>
