<svg xmlns="http://www.w3.org/2000/svg" width="16.537" height="16.6" viewBox="0 0 16.537 16.6">
  <g id="telephone_1_" data-name="telephone (1)" transform="translate(-0.912)">
    <path id="Caminho_540" data-name="Caminho 540" d="M4.263,11.035a17.611,17.611,0,0,0,5.858,4.589,9.117,9.117,0,0,0,3.278.97c.079,0,.155.007.234.007a2.715,2.715,0,0,0,2.105-.9.075.075,0,0,0,.014-.017,8.863,8.863,0,0,1,.664-.688c.162-.155.327-.316.485-.482a1.661,1.661,0,0,0-.007-2.473L14.826,9.968a1.673,1.673,0,0,0-1.211-.557,1.73,1.73,0,0,0-1.225.554L11.159,11.2c-.114-.065-.23-.124-.341-.179a4.253,4.253,0,0,1-.378-.206A13.033,13.033,0,0,1,7.328,7.977,7.5,7.5,0,0,1,6.275,6.3c.323-.292.626-.6.918-.9.1-.107.21-.213.316-.32a1.763,1.763,0,0,0,.571-1.238A1.749,1.749,0,0,0,7.51,2.6L6.485,1.579c-.12-.12-.234-.237-.351-.358C5.907.987,5.67.746,5.436.53A1.715,1.715,0,0,0,4.225,0,1.765,1.765,0,0,0,3,.533L1.714,1.82A2.643,2.643,0,0,0,.926,3.512,6.366,6.366,0,0,0,1.4,6.264,16.009,16.009,0,0,0,4.263,11.035Zm-2.5-7.45a1.819,1.819,0,0,1,.547-1.17l1.28-1.28A.926.926,0,0,1,4.225.843a.879.879,0,0,1,.619.3c.23.213.447.437.681.674.117.12.237.241.358.365L6.908,3.206a.934.934,0,0,1,.323.643.934.934,0,0,1-.323.643c-.107.107-.213.217-.32.323-.32.323-.619.629-.949.922l-.017.017a.673.673,0,0,0-.172.764c0,.01.007.017.01.028A8.1,8.1,0,0,0,6.667,8.51a13.755,13.755,0,0,0,3.316,3.02,4.923,4.923,0,0,0,.454.248,4.253,4.253,0,0,1,.378.206l.038.021a.719.719,0,0,0,.334.086.73.73,0,0,0,.513-.234l1.286-1.286a.91.91,0,0,1,.629-.306.864.864,0,0,1,.609.306L16.3,12.641a.83.83,0,0,1-.01,1.3c-.144.155-.3.3-.457.457a9.906,9.906,0,0,0-.719.746,1.888,1.888,0,0,1-1.476.626c-.058,0-.12,0-.179-.007a8.283,8.283,0,0,1-2.965-.887A16.73,16.73,0,0,1,4.916,10.5,15.323,15.323,0,0,1,2.2,5.982,5.548,5.548,0,0,1,1.766,3.584Z" fill="#993f98"/>
  </g>
</svg>
