<svg xmlns="http://www.w3.org/2000/svg" width="40" height="40" viewBox="0 0 40 40">
  <g id="Grupo_316" data-name="Grupo 316" transform="translate(-1682 -10)">
    <path id="Caminho_515" data-name="Caminho 515" d="M20,0A20,20,0,1,1,0,20,20,20,0,0,1,20,0Z" transform="translate(1682 10)" fill="#666"/>
    <path id="bell" d="M70.483,17.508a3.418,3.418,0,0,1-1.039-1.414,16.367,16.367,0,0,1-1.083-6.467c0-.008,0-.017,0-.025A6.242,6.242,0,0,0,64.686,3.94V2.451A2.452,2.452,0,0,0,62.24,0h-.2A2.452,2.452,0,0,0,59.59,2.451V3.94a6.242,6.242,0,0,0-3.675,5.686,16.367,16.367,0,0,1-1.083,6.467,3.418,3.418,0,0,1-1.039,1.414.627.627,0,0,0-.344.713.656.656,0,0,0,.646.5H58.82a3.318,3.318,0,0,0,6.636,0h4.724a.656.656,0,0,0,.646-.5A.627.627,0,0,0,70.483,17.508Zm-9.6-15.057a1.16,1.16,0,0,1,1.158-1.16h.2A1.16,1.16,0,0,1,63.4,2.451V3.521a6.242,6.242,0,0,0-2.518,0V2.451Zm1.259,18.258a2.034,2.034,0,0,1-2.029-1.985h4.058A2.034,2.034,0,0,1,62.138,20.709Zm2.6-3.276H55.565a6.756,6.756,0,0,0,.338-.593,16.318,16.318,0,0,0,1.3-7.214,4.934,4.934,0,1,1,9.867,0c0,.008,0,.016,0,.024a16.285,16.285,0,0,0,1.3,7.188,6.759,6.759,0,0,0,.338.593Z" transform="translate(1640.566 18)" fill="#fff"/>
  </g>
</svg>
