<svg xmlns="http://www.w3.org/2000/svg" width="23.66" height="23.672" viewBox="0 0 23.66 23.672">
  <g id="chat_1_" data-name="chat (1)" transform="translate(-0.117)">
    <g id="Grupo_276" data-name="Grupo 276" transform="translate(0.117)">
      <path id="Caminho_521" data-name="Caminho 521" d="M20.313,3.469A11.833,11.833,0,0,0,2.8,19.34,4.441,4.441,0,0,1,.933,21.5a1.1,1.1,0,0,0,.317,2.082,5.63,5.63,0,0,0,.838.064h0a7.653,7.653,0,0,0,4.253-1.378A11.836,11.836,0,0,0,20.313,3.469Zm-.947,15.786A10.5,10.5,0,0,1,6.633,20.886a.666.666,0,0,0-.748.045,6.373,6.373,0,0,1-3.712,1.363,6.735,6.735,0,0,0,2.027-2.8.674.674,0,0,0-.114-.714,10.494,10.494,0,1,1,15.281.476Z" transform="translate(-0.117)" fill="#fff"/>
      <path id="Caminho_522" data-name="Caminho 522" d="M135.865,160h-9.913a.669.669,0,1,0,0,1.338h9.913a.669.669,0,0,0,0-1.338Z" transform="translate(-119.079 -152.07)" fill="#fff"/>
      <path id="Caminho_523" data-name="Caminho 523" d="M135.865,225.3h-9.913a.669.669,0,1,0,0,1.338h9.913a.669.669,0,1,0,0-1.338Z" transform="translate(-119.079 -214.133)" fill="#fff"/>
      <path id="Caminho_524" data-name="Caminho 524" d="M135.865,290.6h-9.913a.669.669,0,0,0,0,1.338h9.913a.669.669,0,0,0,0-1.338Z" transform="translate(-119.079 -276.197)" fill="#fff"/>
    </g>
  </g>
</svg>
