<svg xmlns="http://www.w3.org/2000/svg" width="20.887" height="24.6" viewBox="0 0 20.887 24.6">
  <g id="clipboard" transform="translate(-36.95)">
    <g id="Grupo_273" data-name="Grupo 273" transform="translate(36.95)">
      <g id="Grupo_272" data-name="Grupo 272" transform="translate(0)">
        <path id="Caminho_519" data-name="Caminho 519" d="M56.932,2.623H52.079V.9a.907.907,0,0,0-.9-.9H43.618a.907.907,0,0,0-.9.9V5.663a.907.907,0,0,0,.9.9H49.2a.9.9,0,1,0,0-1.809H44.522V1.809h5.753V3.527a.907.907,0,0,0,.9.9h4.854v18.36H38.759V4.432h1.382a.9.9,0,1,0,0-1.809H37.854a.907.907,0,0,0-.9.9V23.7a.907.907,0,0,0,.9.9H56.932a.907.907,0,0,0,.9-.9V3.527A.907.907,0,0,0,56.932,2.623Z" transform="translate(-36.95)" fill="#fff"/>
      </g>
    </g>
    <g id="Grupo_275" data-name="Grupo 275" transform="translate(42.972 10.635)">
      <g id="Grupo_274" data-name="Grupo 274" transform="translate(0)">
        <path id="Caminho_520" data-name="Caminho 520" d="M165.4,211.931a.905.905,0,0,0-1.281-.005l-4.216,4.18-1.543-1.553a.906.906,0,1,0-1.286,1.276l2.181,2.2a.91.91,0,0,0,1.281.005l4.859-4.818A.905.905,0,0,0,165.4,211.931Z" transform="translate(-156.812 -211.662)" fill="#fff"/>
      </g>
    </g>
  </g>
</svg>
