<svg id="clock-circular-outline_1_" data-name="clock-circular-outline (1)" xmlns="http://www.w3.org/2000/svg" width="21.16" height="21.16" viewBox="0 0 21.16 21.16">
  <g id="Grupo_278" data-name="Grupo 278">
    <path id="Caminho_527" data-name="Caminho 527" d="M10.58,0A10.58,10.58,0,1,0,21.16,10.58,10.592,10.592,0,0,0,10.58,0Zm0,18.909a8.329,8.329,0,1,1,8.329-8.329A8.338,8.338,0,0,1,10.58,18.909Z" fill="#666"/>
    <path id="Caminho_528" data-name="Caminho 528" d="M50.563,23.418H45.808V17.7a.871.871,0,0,0-1.742,0v6.588a.871.871,0,0,0,.871.871h5.626a.871.871,0,0,0,0-1.742Z" transform="translate(-34.469 -13.165)" fill="#666"/>
  </g>
</svg>
