<svg xmlns="http://www.w3.org/2000/svg" width="16.334" height="12.519" viewBox="0 0 16.334 12.519">
  <g id="correct-symbol" transform="translate(0 -51.678)">
    <path id="Caminho_529" data-name="Caminho 529" d="M16.039,53.406l-1.433-1.433a1.018,1.018,0,0,0-1.433,0L6.26,58.9l-3.1-3.109a.975.975,0,0,0-.717-.295.976.976,0,0,0-.717.295L.3,57.221a1.018,1.018,0,0,0,0,1.433L4.11,62.469,5.543,63.9a1.018,1.018,0,0,0,1.433,0l1.433-1.433,7.63-7.629a1.018,1.018,0,0,0,0-1.433Z" fill="#009ab2"/>
  </g>
</svg>
