<svg xmlns="http://www.w3.org/2000/svg" width="26.67" height="20.296" viewBox="0 0 26.67 20.296">
  <g id="envelope_4_" data-name="envelope (4)" transform="translate(0 -57.75)">
    <g id="Grupo_277" data-name="Grupo 277" transform="translate(0 57.75)">
      <path id="Caminho_525" data-name="Caminho 525" d="M23.414,57.75H3.261A3.264,3.264,0,0,0,0,61.011V74.785a3.264,3.264,0,0,0,3.261,3.261H23.409a3.264,3.264,0,0,0,3.261-3.261V61.017A3.261,3.261,0,0,0,23.414,57.75Zm1.771,17.035a1.773,1.773,0,0,1-1.771,1.771H3.261A1.773,1.773,0,0,1,1.49,74.785V61.017a1.773,1.773,0,0,1,1.771-1.771H23.409a1.773,1.773,0,0,1,1.771,1.771V74.785Z" transform="translate(0 -57.75)" fill="#993f98"/>
      <path id="Caminho_526" data-name="Caminho 526" d="M69.5,116.057l6.523-5.849a.746.746,0,1,0-1-1.109l-8.995,8.073L64.27,115.6c-.006-.006-.011-.011-.011-.017a1.1,1.1,0,0,0-.121-.1L57,109.093A.747.747,0,1,0,56,110.207l6.6,5.9-6.572,6.153A.748.748,0,0,0,56,123.313a.762.762,0,0,0,.546.237.747.747,0,0,0,.508-.2l6.672-6.241,1.81,1.617a.743.743,0,0,0,.993-.006l1.86-1.667,6.633,6.3a.747.747,0,0,0,1.054-.028.748.748,0,0,0-.028-1.054Z" transform="translate(-52.676 -106.08)" fill="#993f98"/>
    </g>
  </g>
</svg>
