<svg xmlns="http://www.w3.org/2000/svg" width="23.76" height="19.467" viewBox="0 0 23.76 19.467">
  <g id="home-button" transform="translate(0.001 -40.522)">
    <path id="Caminho_518" data-name="Caminho 518" d="M23.535,49.779,12.857,41.154l-.593-.492a.6.6,0,0,0-.771,0L8.412,43.221V42.139a.6.6,0,0,0-.6-.6h-2.3a.6.6,0,0,0-.6.6v3.985L.221,49.944a.6.6,0,0,0,.764.936l1.826-1.49v10a.6.6,0,0,0,.6.6H9.867a.6.6,0,0,0,.6-.6V54.7h2.817v4.684a.6.6,0,0,0,.6.6h6.452a.6.6,0,0,0,.6-.6V49.241l1.829,1.477a.6.6,0,0,0,.759-.939ZM6.111,42.742H7.2v1.439l-1.094.886V42.742Zm13.629,5.7V58.781H14.5V54.1a.6.6,0,0,0-.6-.6H9.867a.6.6,0,0,0-.6.6v4.684H4.019V48.439l2.347-1.949s5.5-4.5,5.531-4.563Z" fill="#fff"/>
  </g>
</svg>
