<svg xmlns="http://www.w3.org/2000/svg" width="18" height="18" viewBox="0 0 18 18">
  <g id="move-option" transform="translate(0 -0.005)">
    <path id="Caminho_533" data-name="Caminho 533" d="M17.809,8.553,15.238,5.981a.643.643,0,0,0-1.095.452V7.719H10.286V3.862h1.286a.639.639,0,0,0,.452-1.095L9.452.2a.631.631,0,0,0-.9,0L5.977,2.767a.643.643,0,0,0,.452,1.095H7.714V7.719H3.857V6.434a.639.639,0,0,0-1.095-.452L.191,8.553a.631.631,0,0,0,0,.9l2.571,2.571a.643.643,0,0,0,1.095-.452V10.29H7.714v3.857H6.429a.639.639,0,0,0-.452,1.1l2.571,2.571a.631.631,0,0,0,.9,0l2.571-2.571a.643.643,0,0,0-.452-1.1H10.286V10.29h3.857v1.286a.639.639,0,0,0,1.095.452l2.571-2.571a.631.631,0,0,0,0-.9Z" transform="translate(0 0)" fill="#d1d1d1"/>
  </g>
</svg>
