<svg xmlns="http://www.w3.org/2000/svg" width="15.273" height="21" viewBox="0 0 15.273 21">
  <g id="refresh-button" transform="translate(-76.5)">
    <g id="loop" transform="translate(76.5)">
      <path id="Caminho_530" data-name="Caminho 530" d="M84.136,2.864V0L80.318,3.818l3.818,3.818V4.773A5.744,5.744,0,0,1,89.864,10.5a6.146,6.146,0,0,1-.668,2.673L90.627,14.6a8.533,8.533,0,0,0,1.145-4.1A7.659,7.659,0,0,0,84.136,2.864Zm0,13.364A5.744,5.744,0,0,1,78.409,10.5a6.146,6.146,0,0,1,.668-2.673L77.645,6.4A8.533,8.533,0,0,0,76.5,10.5a7.659,7.659,0,0,0,7.636,7.636V21l3.818-3.818-3.818-3.818Z" transform="translate(-76.5)" fill="#0062a4"/>
    </g>
  </g>
</svg>
