<svg xmlns="http://www.w3.org/2000/svg" width="22.66" height="22.66" viewBox="0 0 22.66 22.66">
  <g id="user_2_" data-name="user (2)" transform="translate(0)">
    <g id="Grupo_279" data-name="Grupo 279" transform="translate(0)">
      <path id="Caminho_531" data-name="Caminho 531" d="M19.342,14.649a11.287,11.287,0,0,0-4.305-2.7,6.55,6.55,0,1,0-7.412,0A11.348,11.348,0,0,0,0,22.66H1.77a9.56,9.56,0,1,1,19.12,0h1.77A11.256,11.256,0,0,0,19.342,14.649ZM11.33,11.33a4.78,4.78,0,1,1,4.78-4.78A4.785,4.785,0,0,1,11.33,11.33Z" transform="translate(0)" fill="#fff"/>
    </g>
  </g>
</svg>
